HIERARCHY
ROOT root
{
	OFFSET 0.000000 0.000000 0.000000
	CHANNELS 6 Xposition Yposition Zposition Zrotation Yrotation Xrotation
	JOINT lhip
	{
		OFFSET 0.058581 -0.082280 -0.017664
		CHANNELS 3 Zrotation Yrotation Xrotation
		JOINT lknee
		{
			OFFSET 0.043451 -0.386469 0.008037
			CHANNELS 3 Zrotation Yrotation Xrotation
			JOINT lankle
			{
				OFFSET -0.014790 -0.426874 -0.037428
				CHANNELS 3 Zrotation Yrotation Xrotation
				JOINT ltoe
				{
					OFFSET 0.041054 -0.060286 0.122042
					CHANNELS 3 Zrotation Yrotation Xrotation
					End Site
					{
						OFFSET 0.000000 0.000000 0.000000
					}
				}
			}
		}
	}
	JOINT rhip
	{
		OFFSET -0.060310 -0.090513 -0.013543
		CHANNELS 3 Zrotation Yrotation Xrotation
		JOINT rknee
		{
			OFFSET -0.043257 -0.383688 -0.004843
			CHANNELS 3 Zrotation Yrotation Xrotation
			JOINT rankle
			{
				OFFSET 0.019056 -0.420046 -0.034562
				CHANNELS 3 Zrotation Yrotation Xrotation
				JOINT rtoe
				{
					OFFSET -0.034840 -0.062106 0.130323
					CHANNELS 3 Zrotation Yrotation Xrotation
					End Site
					{
						OFFSET 0.000000 0.000000 0.000000
					}
				}
			}
		}
	}
	JOINT lowerback
	{
		OFFSET 0.004439 0.124404 -0.038385
		CHANNELS 3 Zrotation Yrotation Xrotation
		JOINT upperback
		{
			OFFSET 0.004488 0.137956 0.026820
			CHANNELS 3 Zrotation Yrotation Xrotation
			JOINT chest
			{
				OFFSET -0.002265 0.056032 0.002855
				CHANNELS 3 Zrotation Yrotation Xrotation
				JOINT lowerneck
				{
					OFFSET -0.013390 0.211636 -0.033468
					CHANNELS 3 Zrotation Yrotation Xrotation
					JOINT upperneck
					{
						OFFSET 0.010113 0.088937 0.050410
						CHANNELS 3 Zrotation Yrotation Xrotation
						End Site
						{
							OFFSET 0.000000 0.000000 0.000000
						}
					}
				}
				JOINT lclavicle
				{
					OFFSET 0.071702 0.114000 -0.018898
					CHANNELS 3 Zrotation Yrotation Xrotation
					JOINT lshoulder
					{
						OFFSET 0.122921 0.045205 -0.019046
						CHANNELS 3 Zrotation Yrotation Xrotation
						JOINT lelbow
						{
							OFFSET 0.255332 -0.015649 -0.022946
							CHANNELS 3 Zrotation Yrotation Xrotation
							JOINT lwrist
							{
								OFFSET 0.265709 0.012698 -0.007375
								CHANNELS 3 Zrotation Yrotation Xrotation
								End Site
								{
									OFFSET 0.000000 0.000000 0.000000
								}
							}
						}
					}
				}
				JOINT rclavicle
				{
					OFFSET -0.082954 0.112472 -0.023707
					CHANNELS 3 Zrotation Yrotation Xrotation
					JOINT rshoulder
					{
						OFFSET -0.113228 0.046853 -0.008472
						CHANNELS 3 Zrotation Yrotation Xrotation
						JOINT relbow
						{
							OFFSET -0.260127 -0.014369 -0.031269
							CHANNELS 3 Zrotation Yrotation Xrotation
							JOINT rwrist
							{
								OFFSET -0.269108 0.006794 -0.006027
								CHANNELS 3 Zrotation Yrotation Xrotation
								End Site
								{
									OFFSET 0.000000 0.000000 0.000000
								}
							}
						}
					}
				}
			}
		}
	}
}
MOTION
Frames: 10
Frame Time: 0.033333
0.887683 1.173887 1.014997 -81.569476 1.861632 86.030921 3.335942 0.171762 3.958136 -11.416358 -8.046701 52.473387 -11.969716 3.963525 14.491214 0.000000 -0.000000 0.000000 8.455834 1.800078 -9.461965 -0.598450 0.131604 18.154590 -9.828170 -9.341171 -9.199868 0.000000 -0.000000 0.000000 1.406080 -3.655470 7.597155 4.472393 -4.739828 6.382370 2.084873 -4.414618 -0.235244 1.006943 9.409195 -11.227689 0.475556 13.026170 -1.153824 -30.127661 -6.100031 0.318407 -52.549957 -20.586730 4.878823 16.743676 -18.439004 -28.371744 -5.863396 -4.505392 -41.025086 31.215062 0.301956 3.671899 52.031434 -2.454833 15.219172 -14.391503 11.614943 1.704297 14.023677 4.197340 -0.195445 
0.847005 1.174680 1.018377 -83.624426 1.717086 85.137674 3.130872 -0.100818 -0.006026 -8.208713 -2.389620 57.181561 -8.169323 7.785910 8.710763 0.000000 -0.000000 0.000000 9.420160 1.710403 -4.801945 -0.976084 1.988580 16.549717 -10.156929 -9.728487 -10.969394 0.000000 -0.000000 0.000000 1.809924 -1.947043 8.019710 3.563400 -3.704655 6.501655 1.491368 -3.091819 0.635967 2.201285 8.804891 -11.404794 0.428033 14.243702 -1.207400 -31.674799 -3.263167 0.918554 -55.162595 -16.506876 3.653934 15.670669 -12.643808 -27.208331 -6.606718 -5.819589 -40.638041 31.374695 0.414881 3.586054 52.382582 -0.791066 15.576672 -14.191339 12.555033 3.363672 12.741045 5.425374 0.442920 
0.811798 1.174911 1.021972 -86.575867 1.092193 85.882359 2.799616 -0.614975 -6.211802 -5.600218 2.670328 60.739828 -5.327544 10.268184 4.636455 0.000000 -0.000000 0.000000 9.255614 1.158756 -2.774250 -0.977373 3.908410 15.580312 -9.972679 -8.800651 -12.035498 0.000000 -0.000000 0.000000 2.132007 0.119049 8.564319 2.562979 -2.095186 4.787888 0.824950 -2.373204 1.414076 3.016674 8.776416 -12.086696 -0.174481 15.078948 -0.947290 -33.206422 1.790896 0.211243 -55.376087 -10.460861 1.497651 15.834280 -10.487528 -25.124181 -7.535576 -6.992838 -36.312991 31.371413 -0.787072 2.432472 52.166737 1.161509 15.937029 -13.458153 14.853106 4.748527 12.802364 5.310590 1.234492 
0.767031 1.174181 1.027710 -91.393291 -0.213395 86.332762 2.246401 -1.098142 -11.950065 -5.965096 6.363416 60.764273 -2.589629 11.838272 0.388938 0.000000 -0.000000 0.000000 7.571350 -0.085931 0.535501 -0.283533 7.436707 14.096891 -8.800686 -7.267622 -12.319065 0.000000 -0.000000 0.000000 1.700259 3.224223 8.198523 1.382839 -0.087088 4.820461 0.096563 -0.559015 2.238492 2.564012 8.859636 -11.823225 -0.600704 15.188183 -3.063529 -32.972529 6.963265 -0.674919 -53.002351 -2.532418 -0.297380 15.941058 -13.453325 -27.914763 2.116795 -2.326666 -37.741872 31.717751 -1.560193 1.944743 51.037763 3.268479 16.290332 -13.070489 20.229350 3.603203 7.290654 5.347919 1.832994 
0.741410 1.174044 1.031468 -93.831984 -0.530905 86.362493 2.612031 -1.426597 -14.627809 -6.133573 7.731990 58.634076 -1.948127 11.537422 -2.112668 0.000000 -0.000000 0.000000 6.699606 -0.651015 2.717001 0.085570 8.495133 12.884733 -7.668323 -6.136107 -11.763070 0.000000 -0.000000 0.000000 1.359531 5.084540 8.160833 1.293914 0.960672 5.584371 0.105531 0.583787 2.254634 2.574540 9.909945 -12.030976 -2.244956 14.143778 -4.761113 -32.300398 9.698301 -1.245917 -51.048756 1.763334 -2.086531 16.286943 -14.238703 -23.658246 -6.168936 -4.946113 -31.155711 31.881256 -1.999210 1.783208 49.644065 4.501275 15.431059 -13.482250 23.928296 2.858969 9.566134 5.000628 1.562922 
0.708357 1.173334 1.037071 -95.985046 -1.015143 86.372855 2.886265 -2.783516 -17.731883 -6.847923 8.056777 53.393185 -1.712596 11.867730 -3.936144 0.000000 -0.000000 0.000000 5.385035 -1.566762 5.539357 0.306087 10.411411 11.216229 -5.994653 -5.260498 -10.750889 0.000000 -0.000000 0.000000 0.633717 7.438894 8.640557 1.261957 1.732219 5.804204 0.286991 1.886985 2.400902 1.922265 11.372334 -11.771732 -3.288970 13.085183 -6.384570 -30.301363 12.273754 -1.731590 -47.830492 6.490947 -2.852993 15.406048 -16.647843 -20.790973 -7.043759 -5.095159 -26.860332 31.819475 -2.369306 1.500234 47.790898 5.890016 14.897354 -13.589048 28.061301 1.645155 8.585591 5.313416 1.003299 
0.676300 1.173221 1.041491 -97.537753 -1.180626 86.707191 3.257887 -3.949066 -20.403416 -7.445803 6.653594 46.714821 -1.147523 12.505944 -4.756753 0.000000 -0.000000 0.000000 4.006372 -2.087119 8.090064 0.924193 11.884891 9.381708 -4.570352 -4.384156 -9.185179 0.000000 -0.000000 0.000000 0.294808 9.231151 9.307276 1.137611 2.116407 5.356115 0.466693 3.032242 2.386558 1.241236 12.937027 -12.010313 -4.217275 11.694053 -7.006128 -28.322835 13.783964 -2.130976 -43.535259 10.604096 -3.699412 13.350457 -17.683469 -17.528044 -9.400423 -5.906523 -21.550515 31.279741 -2.008168 1.487389 46.475353 6.560524 14.397133 -14.681891 32.237831 -0.607090 6.056071 6.696086 0.868612 
0.645005 1.173210 1.043266 -97.302258 -0.853282 86.866422 3.598176 -5.229586 -22.165829 -6.138736 4.418763 38.436847 -1.343802 12.592747 -4.227313 0.000000 -0.000000 0.000000 3.884749 -2.296154 10.697060 0.572147 12.825841 7.763644 -3.241100 -4.611597 -7.580779 0.000000 -0.000000 0.000000 0.256585 10.321257 9.837793 1.316466 1.918820 5.339001 0.685382 3.326420 2.420415 0.775636 14.076169 -12.148298 -4.902538 10.310803 -7.018380 -26.172719 13.805554 -1.457815 -40.115392 13.555161 -3.547625 11.836115 -17.628930 -14.499231 -12.619730 -6.993495 -17.794122 30.366916 -1.452380 0.930198 45.313247 7.366097 14.002221 -15.610664 35.208579 -1.771355 6.392917 7.640287 0.121901 
0.612222 1.173415 1.042814 -97.350726 -0.625193 87.023259 3.611402 -5.384990 -22.989538 -4.385828 2.518511 29.710664 -2.135196 13.165097 -3.818394 0.000000 -0.000000 0.000000 3.288644 -2.477471 13.121344 0.905067 14.441478 6.892048 -2.327060 -4.636392 -6.702270 0.000000 -0.000000 0.000000 0.022853 11.218831 10.100269 1.362477 1.612352 5.608704 0.918402 3.512836 2.256768 0.273920 14.963492 -12.542070 -5.252001 9.422358 -7.123530 -24.724541 13.199665 -0.680608 -36.386507 16.158216 -3.317132 9.541332 -16.979136 -11.680713 -15.643823 -7.502231 -13.824804 29.695129 -0.395084 0.736151 44.056032 8.190485 13.536927 -16.172299 37.278826 -2.632606 6.840584 8.236031 0.807800 
0.570042 1.172791 1.038470 -97.307792 -0.213593 87.351548 3.723429 -5.368655 -22.877126 -3.085979 0.941217 17.689585 -2.058652 13.264551 -2.633058 0.000000 -0.000000 0.000000 2.504334 -2.626689 15.536894 1.635250 15.735142 6.997958 -1.084641 -4.416021 -6.521333 0.000000 -0.000000 0.000000 -0.308790 11.780794 10.003718 1.546143 1.262926 6.498818 1.056870 3.756381 1.943259 -0.181704 15.795373 -13.499759 -5.696965 7.639641 -7.354635 -23.465384 12.567728 -0.403805 -32.705127 18.387563 -1.728658 6.519813 -16.421028 -6.469244 -18.966135 -7.550847 -9.162707 29.093574 0.716406 0.204292 42.440919 9.572925 12.968752 -16.330864 38.989285 -3.150750 7.440756 8.667675 1.182998 
